<svg xmlns="http://www.w3.org/2000/svg" xmlns:xlink="http://www.w3.org/1999/xlink" width="1024" zoomAndPan="magnify" viewBox="0 0 768 767.999994" height="1024" preserveAspectRatio="xMidYMid meet" version="1.0"><defs><clipPath id="id1"><path d="M 76.800781 232 L 691 232 L 691 612 L 76.800781 612 Z M 76.800781 232 " clip-rule="nonzero"/></clipPath></defs><g clip-path="url(#id1)"><path fill="#ffffff" d="M 690.914062 254.039062 C 690.914062 257.546875 690.914062 261.0625 690.914062 264.574219 C 684.855469 273.929688 674.515625 278.1875 666.441406 285.136719 C 644.007812 297.414062 620.578125 305.714844 594.453125 303.371094 C 593.28125 303.285156 592.125 303.210938 590.953125 303.125 C 583.640625 300.9375 576.324219 298.738281 568.628906 296.433594 C 569.691406 304.105469 570.332031 311.292969 571.730469 318.324219 C 574.453125 331.953125 574.804688 345.972656 578.570312 359.417969 C 578.65625 360.585938 578.738281 361.75 578.820312 362.917969 C 578.847656 365.933594 578.394531 369.027344 580.324219 371.710938 C 580.53125 375.339844 579.628906 379.09375 581.484375 382.550781 C 581.695312 383.101562 581.910156 383.652344 582.128906 384.199219 L 581.980469 384.132812 C 582.316406 387.285156 582.28125 390.523438 583.039062 393.574219 C 587.921875 413.136719 592.71875 432.722656 598.054688 452.167969 C 601.984375 466.484375 603.820312 481.394531 610.015625 495.085938 C 609.035156 499.902344 612.546875 503.976562 612.273438 508.675781 C 611.945312 509.867188 612.515625 510.566406 613.539062 511.027344 C 613.679688 511.988281 613.828125 512.957031 613.972656 513.914062 C 619.753906 536.734375 625.535156 559.539062 631.3125 582.351562 C 631.3125 584.117188 631.3125 585.894531 631.3125 587.660156 C 629.484375 594.570312 626.304688 600.679688 620.851562 605.457031 C 619.046875 606.488281 617.242188 607.511719 615.433594 608.542969 C 595.875 612.414062 584.722656 605.015625 580.28125 585.539062 C 578.949219 579.699219 576.972656 574.011719 575.296875 568.253906 C 574.496094 559.160156 571.328125 550.636719 568.9375 541.929688 C 566.726562 531.890625 564.699219 521.804688 561.109375 512.140625 C 558.257812 497.925781 555.0625 483.796875 550.425781 470.035156 C 547.847656 458.058594 546.476562 445.722656 540.230469 434.796875 C 540.097656 433.0625 539.976562 431.332031 539.835938 429.597656 C 540.214844 427.496094 540.15625 425.5 538.464844 423.890625 C 538.234375 422.269531 538.003906 420.644531 537.773438 419.023438 C 537.632812 418.433594 537.492188 417.839844 537.351562 417.25 C 537.808594 416.347656 537.359375 416.121094 536.546875 416.167969 C 525.085938 415.417969 525.082031 415.417969 525.082031 426.285156 C 525.074219 477.476562 525.03125 528.660156 525.132812 579.855469 C 525.144531 587 524.289062 593.789062 520.460938 599.964844 C 516.921875 603.292969 513.332031 606.546875 508.777344 608.472656 L 509.078125 608.738281 L 508.929688 608.632812 L 508.507812 608.863281 C 507.914062 608.960938 507.324219 609.050781 506.738281 609.148438 C 506.179688 609.28125 505.617188 609.429688 505.058594 609.5625 C 487.859375 611.902344 475.152344 600.808594 475.132812 583.175781 C 475.078125 527.148438 475.5625 471.109375 474.871094 415.085938 C 474.621094 395.15625 470.277344 375.457031 466.457031 355.847656 C 466.347656 354.675781 466.246094 353.507812 466.144531 352.335938 C 465.535156 348.246094 464.933594 344.160156 464.328125 340.066406 C 464.691406 337.722656 464.820312 335.410156 463.585938 333.246094 C 461.710938 323.191406 462.511719 312.617188 457.808594 303.105469 C 457.722656 300.796875 457.652344 298.476562 457.578125 296.160156 C 457.421875 295.621094 457.269531 295.078125 457.121094 294.53125 C 455.261719 289.675781 448.996094 287.867188 448.523438 282.0625 C 453.867188 278.308594 459.207031 274.558594 466.375 269.523438 C 457.5 270.785156 452.984375 275.625 447.539062 278.597656 C 440.472656 282.460938 438.121094 287.910156 438.152344 296.253906 C 438.527344 391.894531 438.441406 487.535156 438.457031 583.175781 C 438.457031 598.195312 429.9375 608.988281 416.980469 610.570312 C 402.832031 612.304688 392.839844 604.796875 388.75 589.382812 C 388.78125 536.886719 388.832031 484.386719 388.789062 431.890625 C 388.789062 430.109375 390.027344 427.746094 387.410156 426.542969 C 380.828125 424.453125 378.363281 426.851562 379.054688 433.652344 C 379.492188 437.980469 379.03125 442.394531 379.03125 446.773438 C 379.0625 491.992188 379.011719 537.214844 379.222656 582.441406 C 379.261719 591.648438 377.347656 599.644531 369.648438 605.4375 C 354.019531 617.214844 336.539062 610.300781 329.257812 589.449219 C 329.230469 588.832031 329.207031 588.21875 329.179688 587.601562 C 329.257812 584.683594 329.402344 581.761719 329.410156 578.847656 C 329.453125 484.117188 329.480469 389.390625 329.519531 294.660156 C 329.519531 283.863281 316.90625 272.144531 305.710938 272.375 C 309.746094 275.402344 315.339844 277.6875 317.683594 281.820312 C 321.238281 288.070312 312.398438 289.675781 310.617188 294.308594 C 310.207031 295.390625 309.730469 296.492188 309.574219 297.632812 C 308.039062 308.839844 305.148438 319.875 305.121094 331.28125 C 304.988281 332.414062 304.839844 333.546875 304.707031 334.679688 C 303.464844 335.617188 303.347656 336.890625 303.625 338.285156 C 303.4375 340.617188 303.246094 342.941406 303.054688 345.273438 C 301.632812 347.445312 301.457031 349.851562 301.738281 352.34375 C 301.628906 353.515625 301.527344 354.679688 301.421875 355.847656 C 298.449219 366.777344 297.449219 378 296.414062 389.21875 C 296.285156 390.371094 296.164062 391.519531 296.035156 392.671875 C 294.757812 394.238281 294.476562 396.03125 294.847656 397.980469 C 294.660156 400.296875 294.46875 402.628906 294.28125 404.949219 C 292.742188 406.933594 292.734375 409.289062 292.742188 411.613281 C 292.8125 437.507812 292.894531 463.398438 292.984375 489.292969 C 292.984375 498.085938 292.984375 506.882812 292.984375 515.675781 C 292.984375 524.4375 292.984375 533.199219 292.984375 541.964844 C 292.984375 550.757812 292.984375 559.550781 292.984375 568.34375 C 291.921875 577.082031 294.121094 586.035156 291.1875 594.636719 C 290.78125 595.039062 290.667969 595.503906 290.839844 596.050781 C 284.972656 604.792969 276.949219 609.863281 266.316406 610.5 C 265.207031 610.164062 264.09375 609.832031 262.988281 609.503906 C 261.773438 609.300781 260.554688 609.089844 259.339844 608.878906 C 247.195312 602.949219 242.910156 593.320312 243.183594 579.808594 C 243.851562 546.8125 243.394531 513.792969 243.394531 480.785156 C 243.394531 461.214844 243.28125 441.644531 243.5 422.078125 C 243.535156 418.023438 242.289062 415.957031 238.289062 415.867188 C 235.328125 415.804688 231.125 413.691406 230.171875 418.25 C 228.890625 424.398438 225.292969 430.03125 225.984375 436.609375 C 222.941406 445.191406 220.527344 453.933594 219.210938 462.949219 C 218.808594 463.457031 218.730469 464 219.003906 464.589844 C 218.71875 465.140625 218.4375 465.691406 218.152344 466.242188 C 217.800781 468.054688 217.449219 469.859375 217.097656 471.679688 C 210.445312 494.304688 204.492188 517.113281 199.738281 540.21875 C 196.167969 549.261719 194.097656 558.695312 192.566406 568.253906 C 189.636719 578.195312 186.699219 588.132812 183.761719 598.066406 L 183.839844 597.972656 C 175.609375 608.140625 165.417969 612.515625 152.421875 608.628906 L 152.488281 608.660156 C 151.910156 608.257812 151.324219 607.867188 150.753906 607.460938 C 148.15625 605.476562 145.558594 603.503906 142.964844 601.527344 C 142.574219 601.101562 142.191406 600.675781 141.800781 600.25 L 141.597656 599.976562 C 141.105469 599.34375 140.617188 598.707031 140.132812 598.074219 C 139.882812 597.460938 139.625 596.851562 139.371094 596.242188 C 139.03125 595.710938 138.699219 595.179688 138.367188 594.648438 L 138.359375 594.648438 C 135.179688 585.65625 138.578125 577.054688 139.921875 568.339844 C 140.335938 567.839844 140.417969 567.296875 140.152344 566.699219 C 140.433594 566.148438 140.71875 565.589844 140.996094 565.039062 C 141.195312 558.238281 145.828125 552.488281 145.558594 545.578125 C 149.53125 535.332031 151.496094 524.566406 153.90625 513.910156 C 158.183594 496.96875 162.457031 480.03125 166.730469 463.09375 C 169.992188 450.921875 173.398438 438.789062 176.5 426.574219 C 182.09375 404.542969 188.285156 382.617188 189.375 359.707031 C 191.835938 355.796875 190.921875 351.394531 191.171875 347.164062 C 192.785156 345.03125 192.835938 342.597656 192.496094 340.09375 C 192.636719 338.945312 192.785156 337.800781 192.917969 336.648438 C 194.402344 328.136719 195.753906 319.597656 197.386719 311.113281 C 200.058594 297.222656 199.605469 296.625 185.9375 300.621094 C 182.945312 301.5 179.398438 300.457031 176.921875 303.121094 C 175.75 303.203125 174.585938 303.28125 173.421875 303.363281 C 148.105469 305.386719 125.050781 298.257812 103.300781 285.917969 C 102.910156 285.476562 102.4375 285.34375 101.875 285.515625 C 100.507812 283.585938 98.542969 282.589844 96.355469 281.933594 L 96.449219 282.011719 C 95.222656 280.027344 93.257812 279.078125 91.175781 278.308594 L 91.296875 278.417969 C 86.226562 274.101562 80.671875 270.296875 76.964844 264.566406 C 76.964844 261.058594 76.964844 257.542969 76.964844 254.03125 C 82.738281 244.949219 90.472656 241.394531 100.933594 245.46875 C 103.890625 249.355469 107.921875 251.816406 112.183594 253.96875 C 125.78125 263.832031 140.382812 271.285156 157.5625 271.855469 C 163 272.035156 166.621094 273.457031 168.625 279.019531 C 169.917969 282.609375 173.417969 284.605469 177.140625 286.058594 C 187.402344 290.054688 203.007812 283.320312 210.640625 269.933594 C 203.777344 274.269531 198.460938 277.5625 193.207031 280.957031 C 188.804688 283.796875 184.382812 284.8125 179.234375 282.734375 C 166.941406 277.785156 165.839844 264.996094 176.917969 254.019531 C 179.347656 252.429688 181.777344 250.84375 184.210938 249.253906 C 194.84375 243.957031 205.152344 238.085938 216.515625 234.210938 C 221.96875 232.347656 224.355469 232.917969 227.304688 238.277344 C 243.734375 268.078125 282.09375 273.089844 305.8125 248.980469 C 310.074219 244.648438 312.671875 235.480469 321.648438 243.03125 C 322.136719 243.433594 324.507812 241.503906 326.058594 240.757812 C 331.265625 238.234375 336.542969 235.824219 341.726562 233.242188 C 345.804688 231.214844 348.695312 231.820312 352.433594 235.023438 C 369.835938 249.921875 394.957031 251.144531 412.847656 237.007812 C 419.289062 231.917969 423.980469 232.308594 430.453125 235.023438 C 437.503906 237.984375 443.570312 245.316406 452.765625 240.242188 C 455.390625 238.796875 456.355469 242.195312 457.742188 243.964844 C 481.167969 273.71875 523.039062 270.457031 541.261719 237.1875 C 543.789062 232.578125 545.945312 232.21875 550.058594 233.878906 C 557.007812 236.683594 564.054688 239.257812 571.046875 241.933594 C 577.675781 245.96875 584.304688 250.003906 590.933594 254.039062 C 591.9375 255.070312 592.941406 256.09375 593.945312 257.125 C 599.949219 263.273438 600.710938 271.003906 595.945312 277.476562 C 591.003906 284.183594 582.582031 285.765625 575.050781 281.222656 C 570.335938 278.378906 565.910156 275.019531 561.066406 272.417969 C 558.683594 271.136719 556.273438 268.042969 552.5625 270.476562 C 559.425781 275.179688 565.871094 279.90625 572.621094 284.144531 C 582.261719 290.210938 594.722656 288.390625 599.136719 279.015625 C 602.054688 272.828125 606.230469 272.238281 611.3125 271.898438 C 628.101562 270.773438 642.394531 263.582031 655.757812 253.992188 C 656.421875 253.53125 657.085938 253.066406 657.757812 252.605469 C 661.847656 249.941406 665.929688 247.28125 670.019531 244.617188 C 670.734375 244.296875 671.457031 243.972656 672.175781 243.644531 C 674.324219 243.617188 676.480469 243.59375 678.628906 243.566406 C 684.195312 245.296875 687.582031 249.632812 690.914062 254.039062 Z M 690.914062 254.039062 " fill-opacity="1" fill-rule="evenodd"/></g><path fill="#ffffff" d="M 455.65625 196.117188 C 463.457031 181.132812 475.71875 172.25 492.300781 169.285156 C 493.199219 169.226562 494.085938 169.175781 494.976562 169.117188 C 495.960938 169.164062 496.953125 169.199219 497.9375 169.246094 C 519.636719 170.285156 533.375 182.054688 541.421875 201.511719 C 545.371094 221.421875 541.019531 238.726562 524.300781 251.246094 C 501.847656 268.0625 467.519531 261.734375 453.960938 229.492188 C 454.128906 228.285156 453.394531 227.785156 452.414062 227.472656 C 452.464844 226.941406 452.394531 226.429688 452.210938 225.929688 C 452.484375 215.886719 451.410156 205.691406 455.65625 196.117188 Z M 455.65625 196.117188 " fill-opacity="1" fill-rule="evenodd"/><path fill="#ffffff" d="M 375.261719 152.242188 C 375.816406 152.160156 376.367188 152.078125 376.925781 151.988281 C 394.554688 150.53125 409.101562 156.617188 420.710938 169.910156 C 421.113281 170.507812 421.527344 171.109375 421.933594 171.699219 C 426.660156 180.394531 429.601562 189.59375 429.699219 199.582031 C 429.578125 201.320312 429.460938 203.054688 429.339844 204.796875 C 427.992188 206.339844 427.625 208.132812 427.976562 210.113281 C 421.613281 226.527344 410.921875 238.25 392.980469 241.714844 C 370.972656 245.96875 350.964844 235.320312 342.039062 214.863281 C 341.355469 213.289062 340.625 211.730469 339.921875 210.164062 C 340.152344 208.183594 339.878906 206.339844 338.496094 204.789062 C 338.375 203.054688 338.253906 201.316406 338.136719 199.582031 C 339.621094 174.425781 350.308594 160.796875 375.261719 152.242188 Z M 375.261719 152.242188 " fill-opacity="1" fill-rule="evenodd"/><path fill="#ffffff" d="M 261.121094 169.65625 C 267.550781 169.714844 273.980469 169.769531 280.40625 169.824219 C 284.914062 171.640625 289.425781 173.453125 293.9375 175.277344 C 301.046875 180.734375 307.0625 187.183594 311.757812 194.835938 C 313.121094 199.929688 314.46875 205.019531 315.832031 210.113281 C 314.707031 235.175781 304.917969 250.753906 286.066406 257.476562 C 265.648438 264.753906 241.917969 256.386719 231.566406 238.257812 C 220.0625 218.117188 224.328125 193.855469 241.925781 179.378906 C 243.683594 177.929688 245.488281 176.527344 247.265625 175.097656 C 251.878906 173.285156 256.492188 171.46875 261.121094 169.65625 Z M 261.121094 169.65625 " fill-opacity="1" fill-rule="evenodd"/></svg>