<svg xmlns="http://www.w3.org/2000/svg" xmlns:xlink="http://www.w3.org/1999/xlink" width="1024" zoomAndPan="magnify" viewBox="0 0 768 767.999994" height="1024" preserveAspectRatio="xMidYMid meet" version="1.0"><defs><g/><clipPath id="id1"><path d="M 80 188.28125 L 688 188.28125 L 688 579.78125 L 80 579.78125 Z M 80 188.28125 " clip-rule="nonzero"/></clipPath></defs><path fill="#000000" d="M 179.613281 238.800781 L 593.613281 238.800781 L 593.613281 454.050781 L 179.613281 454.050781 L 179.613281 238.800781 " fill-opacity="1" fill-rule="nonzero"/><g fill="#000000" fill-opacity="1"><g transform="translate(386.472258, 352.05006)"><g/></g></g><g clip-path="url(#id1)"><path fill="#ffffff" d="M 224.917969 188.28125 C 125.972656 188.28125 5.386719 579.664062 141.9375 579.664062 C 193.101562 579.664062 241.832031 496.5625 267.664062 468.195312 L 500.632812 468.195312 C 526.464844 496.5625 575.1875 579.664062 626.355469 579.664062 C 762.902344 579.664062 642.316406 188.28125 543.375 188.28125 L 470.457031 188.28125 C 456.398438 188.28125 437.507812 213.425781 425.199219 213.425781 L 343.09375 213.425781 C 330.78125 213.425781 311.890625 188.28125 297.832031 188.28125 L 224.910156 188.28125 Z M 531.480469 247.726562 C 532.5 247.726562 533.511719 247.828125 534.515625 248.027344 C 535.515625 248.226562 536.488281 248.519531 537.433594 248.910156 C 538.375 249.300781 539.273438 249.78125 540.121094 250.347656 C 540.96875 250.917969 541.753906 251.5625 542.476562 252.28125 C 543.199219 253.003906 543.84375 253.789062 544.410156 254.640625 C 544.980469 255.488281 545.457031 256.382812 545.847656 257.328125 C 546.238281 258.269531 546.535156 259.242188 546.734375 260.246094 C 546.933594 261.246094 547.03125 262.257812 547.03125 263.277344 C 547.03125 264.300781 546.933594 265.3125 546.734375 266.3125 C 546.535156 267.316406 546.242188 268.289062 545.851562 269.230469 C 545.460938 270.175781 544.980469 271.070312 544.414062 271.921875 C 543.84375 272.769531 543.199219 273.554688 542.480469 274.277344 C 541.757812 275 540.972656 275.644531 540.121094 276.210938 C 539.273438 276.78125 538.375 277.257812 537.433594 277.648438 C 536.488281 278.042969 535.515625 278.335938 534.515625 278.535156 C 533.511719 278.734375 532.5 278.835938 531.480469 278.835938 C 530.460938 278.835938 529.449219 278.734375 528.445312 278.535156 C 527.445312 278.339844 526.472656 278.042969 525.527344 277.652344 C 524.585938 277.261719 523.6875 276.78125 522.839844 276.214844 C 521.988281 275.648438 521.203125 275.003906 520.480469 274.28125 C 519.757812 273.558594 519.113281 272.773438 518.546875 271.921875 C 517.976562 271.074219 517.5 270.175781 517.109375 269.234375 C 516.71875 268.289062 516.421875 267.316406 516.222656 266.316406 C 516.023438 265.3125 515.921875 264.300781 515.921875 263.277344 C 515.921875 262.257812 516.023438 261.246094 516.222656 260.246094 C 516.421875 259.242188 516.714844 258.269531 517.105469 257.328125 C 517.496094 256.382812 517.976562 255.488281 518.542969 254.640625 C 519.113281 253.789062 519.757812 253.003906 520.480469 252.28125 C 521.203125 251.5625 521.988281 250.914062 522.835938 250.347656 C 523.6875 249.78125 524.582031 249.300781 525.527344 248.910156 C 526.46875 248.519531 527.441406 248.226562 528.445312 248.027344 C 529.445312 247.828125 530.457031 247.726562 531.480469 247.726562 Z M 217.308594 254.621094 L 239.832031 254.621094 L 239.832031 288.40625 L 273.609375 288.40625 L 273.609375 310.921875 L 239.832031 310.921875 L 239.832031 344.703125 L 217.308594 344.703125 L 217.308594 310.921875 L 183.527344 310.921875 L 183.527344 288.40625 L 217.308594 288.40625 Z M 493.535156 285.667969 C 494.554688 285.667969 495.566406 285.765625 496.570312 285.964844 C 497.570312 286.164062 498.542969 286.457031 499.488281 286.847656 C 500.429688 287.238281 501.328125 287.71875 502.175781 288.285156 C 503.027344 288.851562 503.8125 289.496094 504.535156 290.21875 C 505.257812 290.941406 505.902344 291.726562 506.46875 292.578125 C 507.035156 293.425781 507.515625 294.320312 507.90625 295.265625 C 508.296875 296.210938 508.59375 297.179688 508.792969 298.183594 C 508.992188 299.183594 509.089844 300.195312 509.089844 301.21875 C 509.089844 302.238281 508.992188 303.25 508.792969 304.25 C 508.59375 305.253906 508.300781 306.226562 507.910156 307.167969 C 507.519531 308.113281 507.039062 309.011719 506.472656 309.859375 C 505.902344 310.707031 505.257812 311.496094 504.535156 312.214844 C 503.816406 312.9375 503.027344 313.582031 502.179688 314.152344 C 501.328125 314.71875 500.433594 315.199219 499.488281 315.589844 C 498.546875 315.980469 497.570312 316.273438 496.570312 316.472656 C 495.566406 316.671875 494.554688 316.773438 493.535156 316.773438 C 492.511719 316.773438 491.5 316.671875 490.5 316.476562 C 489.5 316.277344 488.527344 315.980469 487.582031 315.589844 C 486.640625 315.199219 485.742188 314.71875 484.894531 314.152344 C 484.042969 313.585938 483.257812 312.941406 482.535156 312.21875 C 481.816406 311.496094 481.171875 310.710938 480.601562 309.859375 C 480.035156 309.011719 479.554688 308.113281 479.164062 307.171875 C 478.773438 306.226562 478.480469 305.253906 478.28125 304.253906 C 478.082031 303.25 477.980469 302.238281 477.980469 301.21875 C 477.980469 300.195312 478.082031 299.183594 478.28125 298.183594 C 478.480469 297.183594 478.773438 296.210938 479.164062 295.265625 C 479.558594 294.324219 480.035156 293.425781 480.601562 292.578125 C 481.171875 291.730469 481.816406 290.941406 482.539062 290.222656 C 483.257812 289.5 484.046875 288.855469 484.894531 288.285156 C 485.742188 287.71875 486.640625 287.242188 487.582031 286.851562 C 488.527344 286.460938 489.5 286.164062 490.5 285.964844 C 491.5 285.765625 492.511719 285.667969 493.535156 285.667969 Z M 570.046875 285.667969 C 571.070312 285.667969 572.082031 285.765625 573.082031 285.964844 C 574.085938 286.164062 575.058594 286.460938 576 286.851562 C 576.945312 287.242188 577.839844 287.71875 578.6875 288.289062 C 579.539062 288.855469 580.324219 289.5 581.046875 290.222656 C 581.769531 290.945312 582.414062 291.730469 582.980469 292.578125 C 583.546875 293.425781 584.027344 294.324219 584.417969 295.265625 C 584.808594 296.210938 585.101562 297.183594 585.300781 298.183594 C 585.5 299.183594 585.601562 300.195312 585.601562 301.21875 C 585.601562 302.238281 585.5 303.25 585.300781 304.253906 C 585.101562 305.253906 584.808594 306.226562 584.417969 307.171875 C 584.027344 308.113281 583.546875 309.011719 582.980469 309.859375 C 582.414062 310.707031 581.769531 311.496094 581.046875 312.214844 C 580.324219 312.9375 579.539062 313.582031 578.691406 314.152344 C 577.839844 314.71875 576.945312 315.199219 576 315.589844 C 575.058594 315.980469 574.085938 316.273438 573.082031 316.472656 C 572.082031 316.671875 571.070312 316.773438 570.046875 316.773438 C 569.027344 316.773438 568.015625 316.675781 567.015625 316.476562 C 566.011719 316.277344 565.039062 315.980469 564.097656 315.589844 C 563.152344 315.199219 562.253906 314.722656 561.40625 314.152344 C 560.558594 313.585938 559.769531 312.941406 559.050781 312.21875 C 558.328125 311.496094 557.679688 310.710938 557.113281 309.863281 C 556.546875 309.011719 556.066406 308.117188 555.675781 307.171875 C 555.285156 306.226562 554.988281 305.253906 554.789062 304.253906 C 554.589844 303.25 554.492188 302.238281 554.492188 301.21875 C 554.492188 300.195312 554.589844 299.183594 554.789062 298.183594 C 554.988281 297.183594 555.285156 296.210938 555.675781 295.265625 C 556.066406 294.324219 556.546875 293.425781 557.113281 292.578125 C 557.679688 291.730469 558.324219 290.941406 559.046875 290.222656 C 559.769531 289.5 560.554688 288.855469 561.40625 288.289062 C 562.253906 287.71875 563.152344 287.242188 564.09375 286.851562 C 565.039062 286.460938 566.011719 286.164062 567.011719 285.964844 C 568.015625 285.765625 569.027344 285.667969 570.046875 285.667969 Z M 532.105469 324.234375 C 533.125 324.234375 534.136719 324.332031 535.140625 324.53125 C 536.140625 324.730469 537.113281 325.027344 538.058594 325.417969 C 539 325.808594 539.898438 326.285156 540.746094 326.855469 C 541.597656 327.421875 542.382812 328.066406 543.105469 328.789062 C 543.828125 329.511719 544.472656 330.296875 545.039062 331.144531 C 545.605469 331.992188 546.085938 332.890625 546.476562 333.832031 C 546.867188 334.777344 547.164062 335.75 547.363281 336.75 C 547.5625 337.753906 547.660156 338.765625 547.660156 339.785156 C 547.660156 340.804688 547.5625 341.816406 547.363281 342.820312 C 547.164062 343.820312 546.871094 344.792969 546.480469 345.738281 C 546.089844 346.679688 545.609375 347.578125 545.042969 348.425781 C 544.472656 349.277344 543.828125 350.0625 543.105469 350.785156 C 542.386719 351.507812 541.597656 352.152344 540.75 352.71875 C 539.898438 353.285156 539.003906 353.765625 538.058594 354.15625 C 537.117188 354.546875 536.140625 354.84375 535.140625 355.042969 C 534.136719 355.242188 533.125 355.339844 532.105469 355.339844 C 531.082031 355.339844 530.070312 355.242188 529.070312 355.042969 C 528.070312 354.84375 527.097656 354.546875 526.152344 354.15625 C 525.210938 353.765625 524.3125 353.289062 523.464844 352.71875 C 522.613281 352.152344 521.828125 351.507812 521.109375 350.785156 C 520.386719 350.0625 519.742188 349.277344 519.171875 348.429688 C 518.605469 347.578125 518.125 346.683594 517.734375 345.738281 C 517.34375 344.796875 517.050781 343.824219 516.851562 342.820312 C 516.652344 341.820312 516.550781 340.808594 516.550781 339.785156 C 516.550781 338.765625 516.652344 337.753906 516.851562 336.75 C 517.050781 335.75 517.34375 334.777344 517.738281 333.835938 C 518.128906 332.890625 518.605469 331.996094 519.171875 331.144531 C 519.742188 330.296875 520.386719 329.511719 521.109375 328.789062 C 521.828125 328.066406 522.617188 327.421875 523.464844 326.855469 C 524.3125 326.289062 525.210938 325.808594 526.152344 325.417969 C 527.097656 325.027344 528.070312 324.730469 529.070312 324.53125 C 530.070312 324.332031 531.082031 324.234375 532.105469 324.234375 Z M 318.585938 386.078125 C 319.601562 386.078125 320.613281 386.125 321.625 386.226562 C 322.636719 386.324219 323.640625 386.472656 324.636719 386.671875 C 325.632812 386.871094 326.617188 387.117188 327.589844 387.410156 C 328.558594 387.707031 329.515625 388.046875 330.453125 388.4375 C 331.390625 388.824219 332.308594 389.257812 333.207031 389.738281 C 334.101562 390.214844 334.972656 390.738281 335.816406 391.300781 C 336.660156 391.867188 337.476562 392.46875 338.261719 393.113281 C 339.046875 393.757812 339.796875 394.441406 340.515625 395.15625 C 341.234375 395.875 341.914062 396.628906 342.558594 397.414062 C 343.203125 398.199219 343.808594 399.011719 344.371094 399.855469 C 344.9375 400.699219 345.457031 401.570312 345.9375 402.464844 C 346.417969 403.363281 346.851562 404.277344 347.238281 405.21875 C 347.628906 406.15625 347.96875 407.109375 348.265625 408.082031 C 348.558594 409.054688 348.804688 410.039062 349.003906 411.035156 C 349.203125 412.03125 349.351562 413.035156 349.449219 414.042969 C 349.550781 415.054688 349.597656 416.066406 349.597656 417.082031 C 349.597656 418.097656 349.550781 419.113281 349.449219 420.121094 C 349.351562 421.132812 349.203125 422.136719 349.003906 423.132812 C 348.804688 424.128906 348.558594 425.113281 348.265625 426.085938 C 347.96875 427.058594 347.628906 428.011719 347.238281 428.949219 C 346.851562 429.890625 346.417969 430.804688 345.9375 431.703125 C 345.460938 432.597656 344.9375 433.46875 344.375 434.3125 C 343.808594 435.15625 343.207031 435.972656 342.5625 436.757812 C 341.917969 437.542969 341.234375 438.292969 340.515625 439.011719 C 339.800781 439.730469 339.046875 440.410156 338.261719 441.054688 C 337.476562 441.699219 336.660156 442.304688 335.816406 442.867188 C 334.972656 443.433594 334.101562 443.953125 333.207031 444.433594 C 332.3125 444.910156 331.394531 445.34375 330.457031 445.734375 C 329.515625 446.121094 328.5625 446.464844 327.589844 446.757812 C 326.617188 447.054688 325.632812 447.300781 324.636719 447.5 C 323.640625 447.695312 322.636719 447.847656 321.625 447.945312 C 320.613281 448.042969 319.601562 448.09375 318.585938 448.09375 C 317.570312 448.09375 316.558594 448.046875 315.546875 447.945312 C 314.535156 447.847656 313.53125 447.699219 312.535156 447.5 C 311.539062 447.300781 310.554688 447.054688 309.582031 446.761719 C 308.609375 446.464844 307.65625 446.125 306.71875 445.734375 C 305.777344 445.347656 304.863281 444.914062 303.964844 444.433594 C 303.070312 443.957031 302.199219 443.433594 301.355469 442.871094 C 300.511719 442.304688 299.695312 441.703125 298.910156 441.058594 C 298.125 440.414062 297.375 439.730469 296.65625 439.011719 C 295.9375 438.296875 295.257812 437.542969 294.613281 436.757812 C 293.96875 435.972656 293.363281 435.160156 292.800781 434.3125 C 292.234375 433.46875 291.714844 432.597656 291.234375 431.703125 C 290.753906 430.808594 290.320312 429.890625 289.933594 428.953125 C 289.542969 428.011719 289.203125 427.058594 288.90625 426.085938 C 288.613281 425.113281 288.367188 424.128906 288.167969 423.132812 C 287.96875 422.136719 287.820312 421.132812 287.722656 420.125 C 287.621094 419.113281 287.570312 418.097656 287.570312 417.082031 C 287.570312 416.066406 287.621094 415.054688 287.722656 414.042969 C 287.820312 413.035156 287.96875 412.03125 288.167969 411.035156 C 288.367188 410.039062 288.613281 409.054688 288.90625 408.082031 C 289.203125 407.109375 289.542969 406.15625 289.933594 405.21875 C 290.320312 404.277344 290.753906 403.363281 291.234375 402.464844 C 291.710938 401.570312 292.234375 400.699219 292.796875 399.855469 C 293.363281 399.011719 293.96875 398.199219 294.613281 397.414062 C 295.257812 396.628906 295.9375 395.875 296.65625 395.15625 C 297.375 394.441406 298.125 393.757812 298.910156 393.113281 C 299.695312 392.46875 300.511719 391.867188 301.355469 391.300781 C 302.199219 390.738281 303.070312 390.214844 303.964844 389.738281 C 304.863281 389.257812 305.777344 388.824219 306.71875 388.4375 C 307.65625 388.046875 308.609375 387.707031 309.582031 387.410156 C 310.554688 387.117188 311.539062 386.871094 312.535156 386.671875 C 313.53125 386.472656 314.535156 386.324219 315.546875 386.226562 C 316.558594 386.125 317.570312 386.078125 318.585938 386.078125 Z M 449.707031 386.078125 C 450.722656 386.078125 451.738281 386.125 452.746094 386.226562 C 453.757812 386.324219 454.761719 386.472656 455.757812 386.671875 C 456.753906 386.871094 457.738281 387.117188 458.710938 387.414062 C 459.679688 387.707031 460.636719 388.050781 461.574219 388.4375 C 462.511719 388.828125 463.429688 389.261719 464.324219 389.738281 C 465.222656 390.21875 466.089844 390.738281 466.9375 391.304688 C 467.78125 391.867188 468.59375 392.472656 469.378906 393.117188 C 470.164062 393.761719 470.917969 394.441406 471.632812 395.160156 C 472.351562 395.878906 473.035156 396.628906 473.679688 397.414062 C 474.324219 398.199219 474.925781 399.015625 475.492188 399.859375 C 476.054688 400.703125 476.578125 401.574219 477.054688 402.46875 C 477.535156 403.363281 477.96875 404.28125 478.355469 405.21875 C 478.746094 406.15625 479.085938 407.113281 479.382812 408.082031 C 479.675781 409.054688 479.921875 410.039062 480.121094 411.035156 C 480.320312 412.03125 480.46875 413.035156 480.566406 414.042969 C 480.667969 415.054688 480.714844 416.066406 480.714844 417.082031 C 480.714844 418.097656 480.667969 419.113281 480.566406 420.121094 C 480.46875 421.132812 480.320312 422.136719 480.121094 423.132812 C 479.921875 424.128906 479.675781 425.113281 479.382812 426.085938 C 479.085938 427.058594 478.746094 428.011719 478.355469 428.949219 C 477.96875 429.890625 477.535156 430.804688 477.054688 431.703125 C 476.578125 432.597656 476.054688 433.46875 475.492188 434.3125 C 474.925781 435.15625 474.320312 435.972656 473.679688 436.757812 C 473.035156 437.542969 472.351562 438.292969 471.632812 439.011719 C 470.917969 439.730469 470.164062 440.410156 469.378906 441.054688 C 468.59375 441.699219 467.78125 442.304688 466.933594 442.867188 C 466.089844 443.433594 465.222656 443.953125 464.324219 444.433594 C 463.429688 444.910156 462.511719 445.34375 461.574219 445.734375 C 460.636719 446.121094 459.679688 446.464844 458.710938 446.757812 C 457.738281 447.054688 456.753906 447.300781 455.757812 447.5 C 454.761719 447.695312 453.757812 447.847656 452.746094 447.945312 C 451.734375 448.042969 450.722656 448.09375 449.707031 448.09375 C 448.691406 448.09375 447.679688 448.046875 446.667969 447.945312 C 445.65625 447.847656 444.652344 447.699219 443.65625 447.5 C 442.660156 447.300781 441.675781 447.054688 440.707031 446.761719 C 439.734375 446.464844 438.777344 446.125 437.839844 445.734375 C 436.902344 445.347656 435.984375 444.914062 435.089844 444.433594 C 434.191406 443.957031 433.324219 443.433594 432.476562 442.871094 C 431.632812 442.304688 430.816406 441.703125 430.03125 441.058594 C 429.246094 440.414062 428.496094 439.730469 427.777344 439.011719 C 427.058594 438.296875 426.378906 437.542969 425.734375 436.757812 C 425.089844 435.972656 424.484375 435.160156 423.921875 434.3125 C 423.355469 433.46875 422.835938 432.597656 422.355469 431.703125 C 421.878906 430.808594 421.445312 429.890625 421.054688 428.953125 C 420.667969 428.011719 420.324219 427.058594 420.03125 426.085938 C 419.734375 425.113281 419.488281 424.128906 419.289062 423.132812 C 419.09375 422.136719 418.941406 421.132812 418.84375 420.125 C 418.742188 419.113281 418.695312 418.097656 418.695312 417.082031 C 418.695312 416.066406 418.742188 415.054688 418.84375 414.042969 C 418.941406 413.035156 419.089844 412.03125 419.289062 411.035156 C 419.488281 410.039062 419.734375 409.054688 420.03125 408.082031 C 420.324219 407.109375 420.664062 406.15625 421.054688 405.21875 C 421.445312 404.277344 421.878906 403.363281 422.355469 402.464844 C 422.835938 401.570312 423.355469 400.699219 423.921875 399.855469 C 424.484375 399.011719 425.089844 398.199219 425.734375 397.414062 C 426.378906 396.628906 427.058594 395.875 427.777344 395.15625 C 428.496094 394.441406 429.246094 393.757812 430.03125 393.113281 C 430.816406 392.46875 431.632812 391.867188 432.476562 391.300781 C 433.320312 390.738281 434.191406 390.214844 435.085938 389.738281 C 435.984375 389.257812 436.902344 388.824219 437.839844 388.4375 C 438.777344 388.046875 439.734375 387.707031 440.703125 387.410156 C 441.675781 387.117188 442.660156 386.871094 443.65625 386.671875 C 444.652344 386.472656 445.65625 386.324219 446.667969 386.226562 C 447.679688 386.125 448.691406 386.078125 449.707031 386.078125 Z M 449.707031 386.078125 " fill-opacity="1" fill-rule="evenodd"/></g></svg>