<svg xmlns="http://www.w3.org/2000/svg" xmlns:xlink="http://www.w3.org/1999/xlink" width="1024" zoomAndPan="magnify" viewBox="0 0 768 767.999994" height="1024" preserveAspectRatio="xMidYMid meet" version="1.0"><defs><clipPath id="id1"><path d="M 76.800781 128 L 688 128 L 688 643.984375 L 76.800781 643.984375 Z M 76.800781 128 " clip-rule="nonzero"/></clipPath></defs><g clip-path="url(#id1)"><path fill="#ffffff" d="M 686.570312 257.90625 C 685.738281 243.449219 691.039062 227.277344 681.441406 214.699219 C 664.625 210.0625 647.851562 205.371094 630.980469 201.234375 C 630.09375 180.320312 631.746094 159.34375 630.210938 138.484375 C 627.78125 124.25 610.46875 129.210938 600.425781 129.101562 C 513.394531 133.457031 433.203125 182.742188 382.019531 251.996094 C 326.96875 176.949219 236.742188 125.234375 142.261719 129.09375 C 140.382812 130.691406 136.582031 133.894531 134.648438 135.492188 C 131.777344 157.183594 134.484375 179.316406 133.320312 201.167969 C 114.191406 208.898438 85.902344 207.683594 76.800781 229.765625 C 80.386719 238.484375 81.214844 247.921875 80.828125 257.300781 C 79.996094 368.003906 81.597656 478.664062 80.050781 589.320312 C 78.617188 597.652344 80.160156 612.394531 92.125 609.800781 C 130.792969 595.726562 172.429688 590.648438 213.460938 593.027344 C 269.222656 597.382812 327.132812 610.46875 372.960938 643.90625 C 377.429688 643.90625 386.308594 643.90625 390.71875 643.960938 C 416.085938 624.476562 446.859375 613.886719 477.25 605.109375 C 542.386719 586.84375 612.707031 588.550781 676.734375 610.460938 C 690.410156 608.144531 686.714844 593.132812 686.832031 583.191406 C 686.246094 474.804688 686.742188 366.351562 686.570312 257.90625 Z M 104.101562 579.820312 C 104.4375 465.523438 104.046875 351.167969 104.265625 236.878906 C 114.027344 233.398438 123.847656 229.925781 133.664062 226.5 C 133.445312 317.78125 133.5 409.074219 133.609375 500.351562 C 132.34375 516.964844 153.082031 514.035156 163.894531 515.085938 C 228.425781 517.785156 287.160156 550.628906 334.042969 593.289062 C 261.671875 564.042969 179.273438 557.417969 104.101562 579.820312 Z M 419.128906 599.144531 C 454.921875 564.097656 496.179688 532.644531 545.214844 519.117188 C 570.476562 510.558594 597.21875 509.734375 623.472656 507.25 C 631.964844 506.199219 630.203125 495.609375 630.808594 489.644531 C 630.753906 402.332031 630.699219 315.027344 630.753906 227.714844 C 641.285156 230.914062 651.824219 234.113281 662.410156 237.203125 C 663.902344 351.503906 662.464844 465.855469 663.125 580.148438 C 582.886719 557.914062 495.25 565.859375 419.128906 599.144531 Z M 419.128906 599.144531 " fill-opacity="1" fill-rule="nonzero"/></g></svg>