<svg xmlns="http://www.w3.org/2000/svg" xmlns:xlink="http://www.w3.org/1999/xlink" width="1024" zoomAndPan="magnify" viewBox="0 0 768 767.999994" height="1024" preserveAspectRatio="xMidYMid meet" version="1.0"><defs><g/><clipPath id="id1"><path d="M 100 103 L 689 103 L 689 646.644531 L 100 646.644531 Z M 100 103 " clip-rule="nonzero"/></clipPath></defs><path fill="#000000" d="M 216.777344 325.507812 L 593.269531 325.507812 L 593.269531 555.757812 L 216.777344 555.757812 L 216.777344 325.507812 " fill-opacity="1" fill-rule="nonzero"/><g fill="#000000" fill-opacity="1"><g transform="translate(405.04762, 446.259608)"><g/></g></g><g clip-path="url(#id1)"><path fill="#ffffff" d="M 313.371094 103.765625 C 309.246094 103.765625 305.0625 105.386719 301.816406 108.628906 C 295.328125 114.570312 295.328125 124.828125 301.816406 131.3125 L 382.917969 212.339844 C 386.164062 215.578125 389.945312 217.203125 394.269531 217.203125 C 398.597656 217.203125 402.378906 215.578125 405.621094 212.339844 L 486.722656 131.3125 C 493.210938 125.371094 493.210938 115.109375 486.722656 108.628906 C 480.777344 102.144531 470.507812 102.144531 464.019531 108.628906 L 394.269531 178.3125 L 324.523438 108.628906 C 321.546875 105.386719 317.492188 103.765625 313.371094 103.765625 Z M 394.269531 251.777344 C 313.710938 251.777344 232.613281 257.175781 153.132812 268.519531 C 128.800781 271.761719 109.339844 291.75 107.175781 316.058594 C 97.984375 404.648438 97.984375 494.3125 107.175781 582.359375 C 109.878906 606.667969 128.800781 626.660156 153.132812 629.902344 C 232.613281 640.703125 313.710938 646.644531 394.269531 646.644531 C 474.832031 646.644531 555.929688 641.246094 635.410156 629.902344 C 659.738281 626.660156 679.203125 606.667969 681.367188 582.359375 C 691.097656 494.3125 691.097656 404.648438 681.367188 316.058594 C 678.664062 291.75 659.738281 271.761719 635.410156 268.519531 C 555.929688 257.714844 474.832031 251.777344 394.269531 251.777344 Z M 259.101562 371.152344 L 367.238281 371.152344 C 376.429688 371.152344 383.457031 378.175781 383.457031 387.359375 C 383.457031 396.542969 376.429688 403.5625 367.238281 403.5625 L 329.390625 403.5625 L 329.390625 500.796875 C 329.390625 509.980469 322.359375 517 313.167969 517 C 303.976562 517 296.949219 509.980469 296.949219 500.796875 L 296.949219 403.5625 L 259.101562 403.5625 C 249.910156 403.5625 242.882812 396.542969 242.882812 387.359375 C 242.882812 378.175781 249.910156 371.152344 259.101562 371.152344 Z M 420.542969 371.214844 C 426.878906 370.914062 433.058594 374.253906 435.898438 380.332031 L 475.371094 462.984375 L 514.84375 380.332031 C 518.628906 372.230469 528.363281 368.996094 536.472656 372.777344 C 544.582031 376.558594 547.816406 386.28125 544.03125 394.382812 L 489.964844 507.820312 C 487.261719 513.222656 481.320312 517 475.371094 517 C 469.425781 517 463.480469 513.222656 460.777344 507.820312 L 406.710938 394.382812 C 402.925781 386.28125 406.160156 376.558594 414.269531 372.777344 C 416.296875 371.832031 418.433594 371.316406 420.542969 371.214844 Z M 420.542969 371.214844 " fill-opacity="1" fill-rule="nonzero"/></g></svg>