<svg xmlns="http://www.w3.org/2000/svg" xmlns:xlink="http://www.w3.org/1999/xlink" width="1024" zoomAndPan="magnify" viewBox="0 0 768 767.999994" height="1024" preserveAspectRatio="xMidYMid meet" version="1.0"><defs><clipPath id="id1"><path d="M 179 238 L 265 238 L 265 636.289062 L 179 636.289062 Z M 179 238 " clip-rule="nonzero"/></clipPath><clipPath id="id2"><path d="M 282 323 L 368 323 L 368 636.289062 L 282 636.289062 Z M 282 323 " clip-rule="nonzero"/></clipPath><clipPath id="id3"><path d="M 76.800781 334 L 163 334 L 163 636.289062 L 76.800781 636.289062 Z M 76.800781 334 " clip-rule="nonzero"/></clipPath><clipPath id="id4"><path d="M 384 429 L 470 429 L 470 636.289062 L 384 636.289062 Z M 384 429 " clip-rule="nonzero"/></clipPath><clipPath id="id5"><path d="M 487 377 L 573 377 L 573 636.289062 L 487 636.289062 Z M 487 377 " clip-rule="nonzero"/></clipPath><clipPath id="id6"><path d="M 109 131.539062 L 689 131.539062 L 689 587 L 109 587 Z M 109 131.539062 " clip-rule="nonzero"/></clipPath></defs><g clip-path="url(#id1)"><path fill="#ffffff" d="M 191.65625 250.476562 C 191.414062 250.476562 191.1875 250.703125 191.1875 250.9375 L 191.1875 624.214844 C 191.1875 624.460938 191.414062 624.6875 191.65625 624.6875 L 252.632812 624.6875 C 252.878906 624.6875 253.105469 624.460938 253.105469 624.214844 L 253.105469 250.9375 C 253.105469 250.703125 252.878906 250.476562 252.632812 250.476562 Z M 252.632812 636.285156 L 191.65625 636.285156 C 185.003906 636.285156 179.585938 630.867188 179.585938 624.214844 L 179.585938 250.9375 C 179.585938 244.285156 185.003906 238.875 191.65625 238.875 L 252.632812 238.875 C 259.285156 238.875 264.703125 244.285156 264.703125 250.9375 L 264.703125 624.214844 C 264.703125 630.867188 259.285156 636.285156 252.632812 636.285156 " fill-opacity="1" fill-rule="nonzero"/></g><g clip-path="url(#id2)"><path fill="#ffffff" d="M 293.792969 624.6875 L 355.695312 624.6875 L 355.695312 335.347656 L 293.792969 335.347656 Z M 356.476562 636.285156 L 293.015625 636.285156 C 287.050781 636.285156 282.195312 631.425781 282.195312 625.464844 L 282.195312 334.570312 C 282.195312 328.609375 287.050781 323.75 293.015625 323.75 L 356.476562 323.75 C 362.4375 323.75 367.292969 328.609375 367.292969 334.570312 L 367.292969 625.464844 C 367.292969 631.425781 362.4375 636.285156 356.476562 636.285156 " fill-opacity="1" fill-rule="nonzero"/></g><g clip-path="url(#id3)"><path fill="#ffffff" d="M 88.578125 624.6875 L 150.488281 624.6875 L 150.488281 346.332031 L 88.578125 346.332031 Z M 151.269531 636.285156 L 87.796875 636.285156 C 81.828125 636.285156 76.980469 631.425781 76.980469 625.464844 L 76.980469 345.550781 C 76.980469 339.589844 81.828125 334.734375 87.796875 334.734375 L 151.269531 334.734375 C 157.230469 334.734375 162.089844 339.589844 162.089844 345.550781 L 162.089844 625.464844 C 162.089844 631.425781 157.230469 636.285156 151.269531 636.285156 " fill-opacity="1" fill-rule="nonzero"/></g><g clip-path="url(#id4)"><path fill="#ffffff" d="M 396.347656 624.6875 L 458.265625 624.6875 L 458.265625 441.136719 L 396.347656 441.136719 Z M 459.609375 636.285156 L 395.007812 636.285156 C 389.34375 636.285156 384.746094 631.679688 384.746094 626.035156 L 384.746094 439.796875 C 384.746094 434.140625 389.34375 429.539062 395.007812 429.539062 L 459.609375 429.539062 C 465.273438 429.539062 469.867188 434.140625 469.867188 439.796875 L 469.867188 626.035156 C 469.867188 631.679688 465.273438 636.285156 459.609375 636.285156 " fill-opacity="1" fill-rule="nonzero"/></g><g clip-path="url(#id5)"><path fill="#ffffff" d="M 561.691406 636.285156 L 498.238281 636.285156 C 492.265625 636.285156 487.417969 631.425781 487.417969 625.464844 L 487.417969 383.5625 C 487.417969 380.363281 490.011719 377.765625 493.21875 377.765625 C 496.417969 377.765625 499.019531 380.363281 499.019531 383.5625 L 499.019531 624.6875 L 560.910156 624.6875 L 560.910156 430.316406 C 560.910156 427.121094 563.511719 424.519531 566.710938 424.519531 C 569.917969 424.519531 572.511719 427.121094 572.511719 430.316406 L 572.511719 625.464844 C 572.511719 631.425781 567.664062 636.285156 561.691406 636.285156 " fill-opacity="1" fill-rule="nonzero"/></g><path fill="#ffffff" d="M 529.421875 357.269531 C 506.203125 357.269531 485.324219 344.390625 474.933594 323.679688 C 459.863281 293.652344 472.023438 256.960938 502.046875 241.902344 C 510.617188 237.597656 519.796875 235.414062 529.320312 235.414062 C 552.539062 235.414062 573.425781 248.289062 583.820312 269.011719 C 598.890625 299.03125 586.71875 335.703125 556.707031 350.78125 C 548.125 355.085938 538.945312 357.269531 529.421875 357.269531 Z M 594.195312 263.8125 C 581.796875 239.140625 556.941406 223.816406 529.320312 223.816406 C 517.976562 223.816406 507.046875 226.410156 496.84375 231.527344 C 461.101562 249.46875 446.621094 293.132812 464.566406 328.871094 C 476.945312 353.542969 501.800781 368.867188 529.421875 368.867188 C 540.765625 368.867188 551.695312 366.265625 561.90625 361.144531 C 597.640625 343.207031 612.121094 299.550781 594.195312 263.8125 " fill-opacity="1" fill-rule="nonzero"/><g clip-path="url(#id6)"><path fill="#ffffff" d="M 672.4375 568.179688 L 661.097656 573.871094 C 660.074219 574.386719 658.980469 574.640625 657.835938 574.640625 C 655.054688 574.640625 652.464844 573.066406 651.230469 570.601562 L 585.839844 440.359375 C 584.027344 436.722656 585.496094 432.300781 589.113281 430.488281 L 600.457031 424.789062 C 601.480469 424.285156 602.578125 424.019531 603.71875 424.019531 C 606.5 424.019531 609.101562 425.605469 610.335938 428.0625 L 675.714844 558.3125 C 677.539062 561.9375 676.070312 566.371094 672.4375 568.179688 Z M 567.363281 419.316406 L 566.890625 418.382812 C 565.070312 414.761719 566.546875 410.328125 570.164062 408.515625 L 594.175781 396.464844 C 595.191406 395.949219 596.289062 395.695312 597.429688 395.695312 C 600.222656 395.695312 602.8125 397.28125 604.046875 399.738281 L 604.515625 400.671875 C 605.386719 402.410156 605.53125 404.402344 604.914062 406.277344 C 604.289062 408.15625 602.984375 409.660156 601.246094 410.539062 L 577.230469 422.589844 C 576.214844 423.097656 575.109375 423.359375 573.96875 423.359375 C 571.195312 423.359375 568.59375 421.773438 567.363281 419.316406 Z M 573.960938 385.175781 C 574.132812 385.085938 574.304688 384.984375 574.46875 384.902344 L 578.464844 382.890625 L 581.492188 388.9375 L 571.703125 393.847656 L 568.675781 387.8125 L 573.523438 385.375 C 573.671875 385.304688 573.824219 385.25 573.960938 385.175781 Z M 450.910156 335.722656 C 429.195312 292.453125 446.722656 239.582031 489.984375 217.875 C 502.34375 211.675781 515.566406 208.523438 529.285156 208.523438 C 562.742188 208.523438 592.84375 227.078125 607.84375 256.960938 C 618.363281 277.910156 620.09375 301.714844 612.707031 323.976562 C 605.40625 346.015625 590.019531 363.910156 569.382812 374.476562 L 568.222656 375.054688 C 556.027344 381.082031 542.988281 384.152344 529.457031 384.152344 C 496 384.152344 465.898438 365.59375 450.910156 335.722656 Z M 686.074219 553.113281 L 620.703125 422.859375 C 619.015625 419.507812 616.433594 416.835938 613.335938 415.023438 C 614.429688 413.492188 615.308594 411.769531 615.917969 409.921875 C 617.519531 405.109375 617.140625 399.972656 614.882812 395.476562 L 614.414062 394.535156 C 611.175781 388.09375 604.671875 384.097656 597.429688 384.097656 C 595.734375 384.097656 594.042969 384.359375 592.402344 384.8125 L 588.207031 376.449219 C 604.753906 364.34375 617.132812 347.480469 623.71875 327.628906 C 632.074219 302.429688 630.117188 275.484375 618.199219 251.761719 C 601.226562 217.9375 567.164062 196.925781 529.285156 196.925781 C 513.742188 196.925781 498.765625 200.484375 484.78125 207.507812 C 435.800781 232.082031 415.957031 291.9375 440.542969 340.921875 C 441.773438 343.386719 443.125 345.761719 444.539062 348.078125 L 424.601562 383.453125 L 384.367188 285.25 C 383.480469 283.078125 381.359375 281.652344 379.003906 281.652344 L 330.65625 281.652344 L 227.042969 134.011719 C 226.039062 132.574219 224.433594 131.667969 222.675781 131.558594 C 220.910156 131.441406 219.222656 132.128906 218.027344 133.414062 L 111.367188 249.289062 C 109.195312 251.644531 109.347656 255.3125 111.703125 257.480469 C 114.070312 259.644531 117.730469 259.5 119.90625 257.132812 L 221.6875 146.5625 L 322.898438 290.777344 C 323.988281 292.328125 325.753906 293.25 327.648438 293.25 L 375.105469 293.25 L 418.402344 398.929688 C 419.253906 400.996094 421.195312 402.382812 423.414062 402.519531 C 423.53125 402.535156 423.652344 402.535156 423.777344 402.535156 C 425.851562 402.535156 427.792969 401.414062 428.824219 399.582031 L 451.894531 358.652344 C 470.519531 381.921875 498.738281 395.75 529.457031 395.75 C 539.097656 395.75 548.523438 394.371094 557.621094 391.65625 L 561.863281 400.117188 C 554.847656 405.546875 552.402344 415.367188 556.523438 423.585938 L 556.996094 424.519531 C 560.167969 430.851562 566.511719 434.792969 573.605469 434.9375 C 573.199219 438.464844 573.769531 442.144531 575.472656 445.558594 L 640.863281 575.800781 C 644.097656 582.246094 650.597656 586.238281 657.835938 586.238281 C 660.765625 586.238281 663.691406 585.550781 666.300781 584.246094 L 677.644531 578.546875 C 686.980469 573.855469 690.769531 562.445312 686.074219 553.113281 " fill-opacity="1" fill-rule="nonzero"/></g></svg>