<svg xmlns="http://www.w3.org/2000/svg" xmlns:xlink="http://www.w3.org/1999/xlink" width="1024" zoomAndPan="magnify" viewBox="0 0 768 767.999994" height="1024" preserveAspectRatio="xMidYMid meet" version="1.0"><defs><clipPath id="id1"><path d="M 76.800781 302 L 139 302 L 139 487 L 76.800781 487 Z M 76.800781 302 " clip-rule="nonzero"/></clipPath><clipPath id="id2"><path d="M 629 302 L 691.050781 302 L 691.050781 487 L 629 487 Z M 629 302 " clip-rule="nonzero"/></clipPath></defs><g clip-path="url(#id1)"><path fill="#ffffff" d="M 138.226562 302.503906 L 97.273438 302.503906 C 76.800781 302.503906 76.800781 315.894531 76.800781 322.976562 L 76.800781 466.289062 C 76.800781 473.371094 76.800781 486.761719 97.273438 486.761719 L 138.226562 486.761719 Z M 138.226562 302.503906 " fill-opacity="1" fill-rule="nonzero"/></g><path fill="#ffffff" d="M 281.550781 343.449219 L 486.300781 343.449219 L 486.300781 425.34375 L 281.550781 425.34375 Z M 281.550781 343.449219 " fill-opacity="1" fill-rule="nonzero"/><g clip-path="url(#id2)"><path fill="#ffffff" d="M 670.574219 302.503906 L 629.625 302.503906 L 629.625 486.761719 L 670.574219 486.761719 C 691.050781 486.761719 691.050781 473.371094 691.050781 466.289062 L 691.050781 322.976562 C 691.050781 315.894531 691.050781 302.503906 670.574219 302.503906 Z M 670.574219 302.503906 " fill-opacity="1" fill-rule="nonzero"/></g><path fill="#ffffff" d="M 261.074219 348.570312 L 261.074219 261.558594 C 261.074219 254.476562 261.074219 241.085938 240.601562 241.085938 L 179.175781 241.085938 C 158.699219 241.085938 158.699219 254.476562 158.699219 261.558594 L 158.699219 507.234375 C 158.699219 514.316406 158.699219 527.707031 179.175781 527.707031 L 240.601562 527.707031 C 261.074219 527.707031 261.074219 514.316406 261.074219 507.234375 Z M 261.074219 348.570312 " fill-opacity="1" fill-rule="nonzero"/><path fill="#ffffff" d="M 609.148438 476.523438 L 609.148438 261.558594 C 609.148438 254.476562 609.148438 241.085938 588.675781 241.085938 L 525.613281 241.085938 C 506.773438 241.085938 506.773438 254.476562 506.773438 261.558594 L 506.773438 507.234375 C 506.773438 514.316406 506.773438 527.707031 525.613281 527.707031 L 588.675781 527.707031 C 609.148438 527.707031 609.148438 514.316406 609.148438 507.234375 Z M 609.148438 476.523438 " fill-opacity="1" fill-rule="nonzero"/></svg>